<?xml version="1.0" standalone="no"?>
<!DOCTYPE svg PUBLIC "-//W3C//DTD SVG 20010904//EN"
 "http://www.w3.org/TR/2001/REC-SVG-20010904/DTD/svg10.dtd">
<svg version="1.0" xmlns="http://www.w3.org/2000/svg"
 width="518.000000pt" height="472.000000pt" viewBox="0 0 518.000000 472.000000"
 preserveAspectRatio="xMidYMid meet">

<g transform="translate(0.000000,472.000000) scale(0.100000,-0.100000)"
fill="#ffffff" stroke="none">
<path d="M2011 3177 c-301 -195 -851 -566 -868 -586 -30 -34 -30 -87 0 -123
31 -37 886 -604 923 -612 57 -12 59 -8 64 236 l5 223 395 3 c463 4 566 -4 735
-56 90 -27 169 -94 200 -168 40 -95 -2 -230 -93 -302 -77 -61 -235 -91 -479
-92 l-152 0 -20 -26 c-19 -25 -21 -40 -21 -195 0 -179 6 -209 47 -228 37 -17
488 -14 593 4 126 22 162 32 250 72 137 63 242 179 304 333 42 102 66 248 66
397 0 143 -22 224 -89 327 -97 148 -294 289 -506 361 -102 35 -205 42 -792 51
l-443 7 0 173 c0 201 -5 224 -52 223 -18 0 -48 -10 -67 -22z"/>
</g>
</svg>
